# xmcd
#
# Track frame offsets: 
#        150
#        19264
#        39487
#        59371
#        77951
#        94426
#        111556
#        126537
#        147153
#        165898
#
# Disc length: 2363 seconds
#
# Revision: 0
# Processed by: cddbd v1.5.2PL0 Copyright (c) Steve Scherf et al.
# Submitted via: ExactAudioCopy v0.99pb3
#
DISCID=8d09390a
DTITLE=Dr. "Feelgood" Potts - Going Down To Memphis
DYEAR=2007
DGENRE=Blues
TTITLE0=Going Down To Memphis
TTITLE1=Ramblin' Mind Blues
TTITLE2=Juke Joint Blues
TTITLE3=My In-Laws
TTITLE4=A Dab Of Your Love
TTITLE5=Delta Blues
TTITLE6=Pistol Packing Mama
TTITLE7=Greenwood Mississippi Town
TTITLE8=I Love You Baby
TTITLE9=Break Away
EXTD=
EXTT0=
EXTT1=
EXTT2=
EXTT3=
EXTT4=
EXTT5=
EXTT6=
EXTT7=
EXTT8=
EXTT9=
PLAYORDER=
